# Blender 5.0.0
# www.blender.org
mtllib Path.mtl
o SM_Env_Footpath_02
v 2.468672 0.049719 -1.358594
v 1.335254 0.072668 -1.774101
v 1.313398 0.058455 -1.329922
v 1.273613 0.076423 -1.646797
v 1.878105 0.063258 -1.509648
v 1.871172 0.057520 -1.362734
v 2.104746 -0.165178 -1.280332
v 2.470137 0.058772 -1.826680
v 2.571836 -0.170961 -1.296387
v 2.538945 -0.170971 -1.259277
v 1.223301 -0.147067 -1.869805
v 1.893750 -0.162717 -1.259980
v 1.956191 -0.163380 -1.271641
v 1.657852 -0.159466 -1.280332
v 1.215820 -0.153816 -1.280332
v 2.106445 -0.158334 -1.871660
v 2.529473 -0.163646 -1.879844
v 1.871074 -0.162431 -1.259687
v 1.247930 0.015798 -1.400957
v 1.246797 -0.020767 -1.610117
v 2.538574 -0.163493 -1.903027
v 2.488047 0.014843 -1.246543
v 2.388691 0.052222 -1.172715
v 1.928144 0.057346 -1.106973
v 1.958086 0.052188 -0.695664
v 2.532930 0.044570 -0.672324
v 2.538164 -0.178278 -0.628984
v 1.880254 -0.169661 -0.646816
v 2.528457 -0.178171 -0.627461
v 1.901191 -0.024285 -0.754961
v 1.871074 -0.162431 -1.259687
v 1.893750 -0.162717 -1.259980
v 1.956191 -0.163380 -1.271641
v 2.104746 -0.165178 -1.280332
v 2.538945 -0.170971 -1.259277
v 0.007754 0.075198 -0.530352
v 1.187051 0.061049 -0.610000
v 0.154316 0.068606 -0.123945
v 1.188809 0.057349 -0.293242
v 0.569473 0.062724 -0.074355
v -0.060410 -0.151697 -0.057500
v 1.196133 -0.161063 -0.634277
v 0.552168 -0.159985 -0.018086
v 0.367246 -0.150569 -0.625547
v 0.810762 -0.163347 -0.013184
v -0.056113 -0.145307 -0.612715
v 1.195391 0.052614 -0.063633
v 1.243652 -0.162134 -0.594277
v 1.246309 -0.166305 -0.237969
v 1.242519 -0.168060 -0.082539
v 1.257148 -0.169052 -0.013184
v 1.714121 0.061034 -1.189023
v 1.249336 0.060280 -0.677266
v 0.584805 0.069589 -0.701191
v 1.871074 -0.162431 -1.259687
v 1.805039 0.065436 -1.036719
v 1.877500 0.052686 -0.690039
v 1.179805 0.068404 -1.235566
v 1.240000 0.068908 -0.926758
v 0.978945 0.079617 -1.142891
v 0.565039 0.087685 -1.224336
v 0.531426 -0.149144 -0.929043
v 1.266992 -0.162002 -0.631426
v 0.985137 -0.150928 -1.275078
v 0.564102 -0.152839 -0.646816
v 0.528008 -0.151610 -0.712930
v 0.543008 -0.145897 -1.221621
v 1.899355 -0.168632 -0.756621
v 1.880254 -0.169663 -0.646816
v -0.015527 0.083805 -1.246113
v 0.497871 0.074549 -1.014102
v -0.058262 0.077690 -0.672324
v 0.133203 0.081781 -1.235566
v -0.059551 -0.145092 -0.627461
v 0.483574 0.070124 -0.697227
v 0.524004 0.076679 -1.226328
v 0.543008 -0.145350 -1.268750
v 0.531426 -0.149145 -0.929043
v 0.125801 -0.139882 -1.280332
v -0.067910 -0.137650 -1.259277
v 0.546055 -0.152224 -0.679883
v 1.124648 0.060108 -1.798887
v 0.003027 0.074676 -1.796797
v -0.057168 0.090892 -1.322871
v 0.552949 0.081447 -1.457910
v 0.125801 -0.139882 -1.280332
v 1.185273 0.070432 -1.698379
v 1.188047 0.070365 -1.413652
v 0.578144 0.077337 -1.342676
v -0.067910 -0.137650 -1.259277
v 0.786953 -0.141468 -1.871660
v 0.953691 -0.150466 -1.280332
v 0.547480 -0.145597 -1.252422
v -0.058828 -0.130563 -1.879844
v 1.247930 0.015798 -1.400957
v 1.215820 -0.153816 -1.280332
v 1.246797 -0.020767 -1.610117
v 1.223301 -0.147067 -1.869805
v -0.003672 0.096887 -2.386113
v 0.525137 0.052032 -2.467559
v 0.576992 0.084836 -1.987344
v -0.057422 0.092389 -1.939473
v 0.142676 0.095719 -2.446621
v 0.552617 -0.130916 -2.522637
v 0.568594 -0.138055 -1.925234
v -0.072129 -0.123529 -2.471015
v 0.319746 0.091530 -2.280801
v -0.058828 -0.130563 -1.879844
v 0.596035 -0.131724 -2.500840
v 0.614688 -0.137704 -2.006191
v 1.230762 0.075970 -1.943477
v 1.862461 0.077940 -2.405527
v 1.905449 0.067855 -1.987344
v 0.682070 0.084221 -2.418242
v 0.654355 0.083577 -1.964121
v 1.233574 0.077648 -2.091074
v 1.863320 0.070269 -2.148828
v 1.251602 -0.147105 -1.897656
v 0.596035 -0.131724 -2.500840
v 0.643906 -0.139359 -1.895859
v 1.262148 -0.139883 -2.531445
v 1.008359 -0.143808 -1.913906
v 0.614688 -0.137704 -2.006191
v 1.891406 -0.147935 -2.530684
v 1.909316 -0.000640 -2.327226
v 1.935898 -0.155663 -1.913906
v 2.491387 0.065687 -2.445683
v 1.926230 -0.104933 -2.489863
v 1.905820 -0.155279 -1.913906
v 2.156367 0.070086 -2.455762
v 2.471562 0.060309 -1.960566
v 1.959941 0.072197 -2.421387
v 1.952227 0.066988 -1.964121
v 2.488555 -0.155917 -2.500586
v 2.539121 -0.156949 -2.467344
v 1.891406 -0.147935 -2.530684
v 2.047012 -0.149887 -2.533789
v 2.530547 -0.163489 -1.894531
v 2.538574 -0.163493 -1.903027
v 1.365664 0.057867 -0.532559
v 1.256660 0.050713 -0.067324
v 1.908828 0.041573 -0.043281
v 2.468516 0.043745 -0.530352
v 1.907070 0.046516 -0.190547
v 1.273848 0.060941 -0.380020
v 2.533652 0.033993 -0.055430
v 1.246309 -0.166305 -0.237969
v 1.243652 -0.162134 -0.594277
v 1.892812 -0.177291 -0.003437
v 1.637871 -0.174032 -0.003437
v 1.257148 -0.169052 -0.013184
v 1.691348 -0.167738 -0.604551
v 2.526445 -0.178664 -0.582793
v 1.242519 -0.168060 -0.082539
v 2.117363 -0.180161 -0.003437
v 2.538750 -0.185679 0.007910
vn 0.6593 0.4730 0.5845
vn -0.8389 0.5423 0.0461
vn -0.7478 0.5457 -0.3782
vn -0.7736 0.4579 0.4380
vn 0.0171 0.4242 0.9054
vn 0.1701 0.4309 0.8862
vn 0.0029 0.2262 0.9741
vn -0.0815 0.4229 0.9025
vn 0.0564 0.3055 0.9505
vn 0.0050 0.9984 0.0560
vn 0.0128 0.9991 0.0396
vn 0.0256 0.9995 -0.0171
vn 0.0031 0.3980 -0.9174
vn -0.0160 0.2284 -0.9734
vn -0.0413 0.2686 -0.9624
vn 0.0180 0.9997 0.0194
vn 0.0136 0.9998 0.0112
vn 0.0169 0.9997 0.0175
vn 0.0127 0.9999 0.0095
vn 0.0584 0.3997 0.9148
vn -0.0020 0.3452 0.9385
vn -0.0391 0.3997 0.9158
vn 0.9098 0.4127 -0.0448
vn -0.7929 0.5260 -0.3078
vn 0.9667 0.2560 0.0080
vn -0.9667 0.2533 -0.0357
vn 0.9997 0.0238 0.0015
vn 0.9591 0.2688 -0.0889
vn -0.0034 0.5712 -0.8208
vn -0.9655 0.2602 -0.0136
vn -0.8247 0.5616 0.0671
vn -0.8614 0.3771 0.3402
vn -0.0524 0.2908 -0.9553
vn 0.0494 0.0817 -0.9954
vn -0.2125 0.7263 -0.6537
vn -0.1367 0.6263 -0.7675
vn 0.3033 0.9501 -0.0729
vn 0.0128 0.9999 0.0116
vn -0.1089 0.5789 -0.8081
vn -0.0371 0.1980 0.9795
vn -0.0262 0.2237 0.9743
vn 0.1542 0.1921 0.9692
vn 0.9688 0.2480 -0.0043
vn 0.9694 0.2457 -0.0025
vn 0.6416 0.1092 -0.7593
vn -0.0091 0.1083 -0.9941
vn -0.0606 0.3044 -0.9506
vn 0.0126 0.9999 0.0110
vn 0.0147 0.9997 0.0170
vn -0.0152 0.2460 0.9691
vn -0.9601 0.2797 -0.0042
vn -0.0239 0.3559 -0.9342
vn -0.6553 0.7135 0.2479
vn -0.1045 0.3791 0.9194
vn -0.0588 0.2488 0.9668
vn 0.0028 0.2227 0.9749
vn -0.0126 0.2486 0.9685
vn 0.0158 0.9997 0.0202
vn 0.9549 0.2209 -0.1983
vn 0.9773 0.2107 -0.0237
vn 0.9666 0.2550 0.0264
vn 0.0128 0.9993 0.0341
vn -0.9801 0.1936 0.0437
vn 0.8893 0.4243 -0.1703
vn 0.6747 0.6068 -0.4203
vn -0.9683 0.2493 -0.0125
vn 0.0233 0.2011 0.9793
vn 0.0260 0.1937 0.9807
vn 0.0270 0.1911 0.9812
vn 0.0224 0.2036 0.9788
vn 0.0005 0.9996 -0.0292
vn 0.0192 0.1607 -0.9868
vn 0.0860 0.3548 -0.9310
vn 0.0142 0.9999 -0.0044
vn -0.0188 0.2005 0.9795
vn -0.0316 0.2401 0.9702
vn -0.0121 0.1876 -0.9822
vn 0.0303 0.9980 -0.0551
vn -0.1200 -0.0002 -0.9928
vn 0.0505 0.9987 -0.0115
vn -0.8592 0.1955 0.4727
vn -0.9949 0.0934 -0.0383
vn 0.9841 0.0456 0.1716
vn 0.9920 0.1143 -0.0544
vn -0.9698 0.2336 -0.0697
vn 0.9863 0.1614 0.0354
vn 0.0134 0.9998 0.0127
vn 0.0146 0.9998 0.0146
vn 0.0133 0.9998 0.0125
vn 0.9906 0.0614 0.1226
vn 0.0870 0.1017 0.9910
vn 0.0478 0.1969 0.9793
vn 0.0439 0.1964 -0.9795
vn 0.0349 0.1967 -0.9798
vn 0.0720 0.1951 -0.9781
vn -0.1067 0.0841 -0.9907
vn -0.9999 0.0085 0.0133
vn 0.9607 0.2736 0.0472
vn 0.9903 0.1270 -0.0566
vn 0.0257 0.1897 -0.9815
vn 0.7148 0.5057 -0.4831
vn 0.0082 0.3273 -0.9449
vn 0.0026 0.3357 -0.9420
vn 0.0127 0.9939 -0.1097
vn 0.0064 0.9995 -0.0304
vn 0.0078 0.9994 -0.0326
vn 0.0061 0.9995 -0.0298
vn 0.0284 0.9992 0.0294
vn 0.0286 0.9992 0.0294
vn 0.0224 0.9993 0.0307
vn 0.0114 0.9999 0.0001
vn 0.1094 0.4261 0.8980
vn 0.0065 0.5117 0.8591
vn -0.9336 0.3340 -0.1300
vn 0.0682 0.3663 0.9280
vn 0.0138 0.3715 -0.9283
vn 0.0081 0.9994 -0.0332
vn 0.0223 0.9993 0.0308
vn 0.1073 0.2618 0.9591
vn -0.0559 0.3813 0.9228
vn 0.0349 0.2079 0.9775
vn -0.9990 0.0430 -0.0141
vn 0.2988 0.5149 0.8035
vn 0.6827 0.7191 -0.1294
vn 0.9837 0.1795 -0.0095
vn -0.0520 0.8999 -0.4330
vn -0.9366 0.3330 -0.1094
vn -0.9997 0.0124 0.0226
vn -0.0198 0.2855 -0.9582
vn -0.0787 0.1861 -0.9794
vn 0.0757 0.2650 0.9613
vn 0.0728 0.2573 0.9636
vn 0.1088 0.9900 -0.0897
vn 0.1081 0.9900 -0.0905
vn 0.1173 0.9898 -0.0804
vn 0.1173 0.9898 -0.0803
vn 0.9607 0.2666 -0.0768
vn 0.8640 0.1047 0.4924
vn 0.4300 0.3189 -0.8447
vn -0.3423 0.4284 -0.8362
vn -0.9848 0.1691 0.0392
vn 0.9212 0.2722 -0.2781
vn 0.8532 0.5214 0.0127
vn 0.6154 0.7740 -0.1490
vn -0.9588 0.1233 0.2558
vn 0.9914 0.1301 -0.0149
vn 0.0073 0.4854 -0.8743
vn -0.0310 0.5630 -0.8259
vn 0.0120 0.3531 -0.9355
vn 0.0265 0.3153 0.9486
vn 0.0660 0.2067 0.9762
vn 0.0147 0.9999 0.0061
vn 0.0121 0.9999 0.0042
vn 0.0103 0.9999 0.0134
vn 0.0050 0.9995 0.0299
vn 0.0071 0.9999 0.0074
vn 0.0131 0.9999 0.0022
vn -0.9201 0.3878 -0.0556
vn -0.0627 0.1952 0.9788
vn -0.0331 0.1661 0.9856
vn 0.0509 0.2902 0.9556
vn 0.5415 0.1956 -0.8176
vn -0.0058 0.6909 -0.7229
vn -0.9794 0.2013 -0.0142
vn -0.9798 0.1997 -0.0150
vn -0.9807 0.1950 -0.0172
vn 0.0761 0.2389 -0.9681
vn 0.0327 0.3197 -0.9470
vn -0.1754 0.4054 -0.8972
vn -0.1553 0.3818 -0.9111
vn -0.0029 0.2823 0.9593
vn -0.0272 0.2257 0.9738
vn 0.9577 0.2878 0.0043
vn 0.9777 0.2055 0.0422
vn 0.6763 0.3667 0.6388
vn -0.9809 0.1936 -0.0178
vn -0.7887 0.6143 0.0257
vn -0.9975 0.0661 -0.0236
vn -0.7237 0.5265 -0.4462
vn -0.9920 0.1258 0.0089
vn -0.9948 0.0882 -0.0518
vn -0.0217 0.2391 0.9708
vn -0.0328 0.2214 0.9746
vn 0.0023 0.1789 0.9839
vn 0.0162 0.9997 0.0186
vn 0.0167 0.9997 0.0194
vn 0.0169 0.9997 0.0197
vn 0.0128 0.9998 -0.0124
vn 0.0128 0.9994 0.0334
vn 0.0059 0.3117 -0.9502
vn -0.0185 0.2796 -0.9599
vn 0.0284 0.2364 -0.9712
vn 0.0160 0.9997 0.0183
vn 0.0214 0.1963 0.9803
vn -0.0223 0.2765 0.9608
vn -0.9772 0.0488 0.2068
vn 0.9525 0.2776 -0.1249
vn 0.9996 0.0173 -0.0206
vn 0.0298 0.1969 -0.9800
vt 0.059107 0.304695
vt 0.059100 0.304657
vt 0.059063 0.304674
vt 0.059228 0.304659
vt 0.059254 0.304699
vt 0.059251 0.304695
vt 0.059231 0.304659
vt 0.059253 0.304714
vt 0.059269 0.304732
vt 0.059233 0.304633
vt 0.059172 0.304673
vt 0.059167 0.304632
vt 0.059167 0.304655
vt 0.059159 0.304635
vt 0.059190 0.304651
vt 0.059172 0.328637
vt 0.059254 0.328664
vt 0.059228 0.328623
vt 0.059180 0.328657
vt 0.059253 0.328679
vt 0.059181 0.304749
vt 0.059142 0.304754
vt 0.059138 0.304767
vt 0.059107 0.328659
vt 0.059142 0.328718
vt 0.059146 0.304665
vt 0.059137 0.304805
vt 0.059062 0.279209
vt 0.059100 0.279305
vt 0.059069 0.279217
vt 0.059104 0.279289
vt 0.059162 0.279270
vt 0.059167 0.279280
vt 0.059150 0.279244
vt 0.059136 0.279212
vt 0.059126 0.279204
vt 0.059130 0.279187
vt 0.059159 0.279283
vt 0.059146 0.279313
vt 0.059119 0.279279
vt 0.059069 0.303181
vt 0.059119 0.303243
vt 0.059150 0.303208
vt 0.059126 0.303168
vt 0.059065 0.279194
vt 0.059166 0.279097
vt 0.059187 0.279130
vt 0.059176 0.279095
vt 0.059193 0.279129
vt 0.059194 0.279138
vt 0.059272 0.279111
vt 0.059301 0.279090
vt 0.059193 0.303093
vt 0.059301 0.303054
vt 0.059176 0.303059
vt 0.059220 0.303017
vt 0.059220 0.279053
vt 0.059217 0.279027
vt 0.059194 0.279044
vt 0.059311 0.279101
vt 0.059276 0.279041
vt 0.059268 0.303025
vt 0.059268 0.279061
vt 0.059162 0.279071
vt 0.059152 0.279055
vt 0.059162 0.303035
vt 0.059160 0.279075
vt 0.059261 0.328488
vt 0.059283 0.328541
vt 0.059292 0.328547
vt 0.059261 0.304524
vt 0.059292 0.304583
vt 0.059272 0.304547
vt 0.059166 0.304625
vt 0.059153 0.304594
vt 0.059134 0.304556
vt 0.059170 0.304606
vt 0.059266 0.304529
vt 0.059188 0.304516
vt 0.059130 0.304538
vt 0.059194 0.304536
vt 0.059194 0.328501
vt 0.059134 0.328520
vt 0.059153 0.328558
vt 0.059210 0.328529
vt 0.059170 0.328570
vt 0.059254 0.304606
vt 0.059233 0.304598
vt 0.059233 0.328562
vt 0.059256 0.304505
vt 0.059293 0.304590
vt 0.059136 0.304564
vt 0.059349 0.326992
vt 0.059354 0.327005
vt 0.059316 0.326922
vt 0.059293 0.327008
vt 0.059282 0.326978
vt 0.059272 0.326966
vt 0.059316 0.350886
vt 0.059265 0.350904
vt 0.059282 0.350942
vt 0.059296 0.327001
vt 0.059334 0.350954
vt 0.059349 0.350956
vt 0.059265 0.326940
vt 0.059313 0.326899
vt 0.059261 0.326936
vt 0.059334 0.326990
vt 0.059317 0.327035
vt 0.058881 0.326450
vt 0.059403 0.326531
vt 0.059377 0.326461
vt 0.059296 0.350965
vt 0.059270 0.279379
vt 0.059275 0.279362
vt 0.059256 0.279348
vt 0.059312 0.279360
vt 0.059383 0.279327
vt 0.059275 0.303326
vt 0.059383 0.303292
vt 0.059256 0.303312
vt 0.059309 0.303269
vt 0.059300 0.303249
vt 0.059234 0.303272
vt 0.059300 0.279285
vt 0.059259 0.279284
vt 0.059234 0.279308
vt 0.059233 0.279281
vt 0.059393 0.279361
vt 0.059358 0.279272
vt 0.059295 0.279248
vt 0.059358 0.303236
vt 0.059354 0.279235
vt 0.059317 0.279265
vt 0.058403 0.278596
vt 0.058881 0.278680
vt 0.058824 0.278602
vt 0.059231 0.279308
vt 0.059251 0.279343
vt 0.059270 0.279385
vt 0.059434 0.304819
vt 0.059439 0.304831
vt 0.059398 0.304741
vt 0.059393 0.304713
vt 0.059377 0.304833
vt 0.059376 0.304845
vt 0.059418 0.304818
vt 0.059348 0.304755
vt 0.059341 0.304769
vt 0.059384 0.328764
vt 0.059398 0.328705
vt 0.059341 0.328733
vt 0.059418 0.328782
vt 0.059434 0.328784
vt 0.059377 0.328797
vt 0.059336 0.304766
vt 0.059374 0.304834
vt 0.059332 0.327182
vt 0.059374 0.327252
vt 0.059336 0.327185
vt 0.059245 0.327305
vt 0.059243 0.327293
vt 0.059228 0.327264
vt 0.059228 0.327244
vt 0.059212 0.327227
vt 0.059335 0.327165
vt 0.059204 0.327212
vt 0.059310 0.327285
vt 0.059359 0.327240
vt 0.059269 0.327171
vt 0.059275 0.327197
vt 0.059275 0.351162
vt 0.059212 0.351191
vt 0.059228 0.351208
vt 0.059284 0.351182
vt 0.059243 0.351258
vt 0.059359 0.351205
vt 0.059332 0.351147
vt 0.059294 0.327176
vt 0.059186 0.279567
vt 0.059183 0.279546
vt 0.059180 0.279561
vt 0.059237 0.279537
vt 0.059245 0.279535
vt 0.059240 0.279524
vt 0.059203 0.279451
vt 0.059228 0.279495
vt 0.059228 0.279494
vt 0.059198 0.279535
vt 0.059153 0.303430
vt 0.059183 0.303511
vt 0.059198 0.303500
vt 0.059228 0.303459
vt 0.059203 0.303415
vt 0.059153 0.279465
vt 0.059141 0.279442
vt 0.059206 0.279433
vt 0.059137 0.279453
vt 0.059157 0.326844
vt 0.059166 0.326867
vt 0.059160 0.326846
vt 0.059172 0.326896
vt 0.059187 0.326900
vt 0.059172 0.326879
vt 0.059152 0.326825
vt 0.059116 0.326832
vt 0.059093 0.326854
vt 0.059089 0.326818
vt 0.059101 0.350836
vt 0.059063 0.350885
vt 0.059172 0.350843
vt 0.059172 0.350860
vt 0.059093 0.350818
vt 0.059157 0.350808
vt 0.059063 0.326921
vt 0.059143 0.326911
vt 0.059061 0.326936
vt 0.059033 0.350837
vt 0.059033 0.326873
vt 0.059070 0.326844
vt 0.059026 0.326835
s 1
usemtl T_ELVEN.025
f 1/1/1 10/2/1 9/3/1
f 3/4/2 4/5/2 20/6/2 19/7/2
f 2/8/3 11/9/3 4/5/3
f 3/4/4 19/7/4 15/10/4
f 6/11/5 18/12/5 12/13/5
f 6/11/6 12/13/6 13/14/6
f 3/4/7 15/10/7 14/15/7
f 18/12/8 6/11/8 14/15/8
f 6/11/9 3/4/9 14/15/9
f 6/16/10 4/17/10 3/18/10
f 6/16/11 5/19/11 4/17/11
f 5/19/12 2/20/12 4/17/12
f 11/9/13 2/8/13 16/21/13
f 8/22/14 17/23/14 16/21/14
f 2/8/15 8/22/15 16/21/15
f 1/24/11 5/19/11 6/16/11
f 1/24/16 8/25/17 5/19/18
f 2/20/19 5/19/18 8/25/17
f 6/11/20 13/14/20 7/26/20
f 1/1/21 6/11/21 7/26/21
f 1/1/22 7/26/22 10/2/22
f 1/1/23 9/3/23 21/27/23
f 1/1/24 21/27/24 17/23/24
f 1/1/25 17/23/25 8/22/25
f 11/9/26 20/6/26 4/5/26
f 27/28/27 35/29/27 26/30/27
f 22/31/28 26/30/28 35/29/28
f 32/32/29 31/33/29 24/34/29
f 31/33/30 30/35/30 24/34/30
f 25/36/31 24/34/31 30/35/31
f 25/36/32 30/35/32 28/37/32
f 33/38/33 22/31/33 34/39/33
f 22/31/34 35/29/34 34/39/34
f 22/31/35 33/38/35 23/40/35
f 33/38/36 32/32/36 23/40/36
f 26/30/37 22/31/37 23/40/37
f 26/41/38 23/42/38 24/43/38
f 32/32/39 24/34/39 23/40/39
f 26/41/38 24/43/38 25/44/38
f 26/30/40 25/36/40 29/45/40
f 25/36/41 28/37/41 29/45/41
f 27/28/42 26/30/42 29/45/42
f 49/46/43 48/47/43 39/48/43
f 37/49/44 39/48/44 48/47/44
f 42/50/45 37/49/45 48/47/45
f 42/50/46 44/51/46 37/49/46
f 44/51/47 36/52/47 37/49/47
f 37/53/38 36/54/38 39/55/48
f 36/54/38 40/56/49 39/55/48
f 40/57/50 43/58/50 45/59/50
f 36/52/51 46/60/51 41/61/51
f 46/60/52 36/52/52 44/51/52
f 40/56/49 36/54/38 38/62/38
f 36/52/53 41/61/53 38/63/53
f 40/57/54 38/63/54 41/61/54
f 40/57/55 41/61/55 43/58/55
f 47/64/56 45/59/56 51/65/56
f 47/64/57 40/57/57 45/59/57
f 40/56/49 47/66/58 39/55/48
f 50/67/59 47/64/59 51/65/59
f 47/64/60 50/67/60 39/48/60
f 49/46/61 39/48/61 50/67/61
f 54/68/62 60/69/62 61/70/62
f 54/71/63 61/72/63 62/73/63
f 55/74/64 56/75/64 57/76/64
f 55/74/65 52/77/65 56/75/65
f 66/78/66 54/71/66 62/73/66
f 57/76/67 63/79/68 69/80/69
f 57/76/67 53/81/70 63/79/68
f 53/82/62 57/83/62 56/84/62
f 53/82/62 56/84/62 59/85/62
f 52/86/71 59/85/71 56/84/71
f 55/74/72 64/87/72 58/88/72
f 52/77/73 55/74/73 58/88/73
f 52/86/74 58/89/74 59/85/74
f 54/68/62 53/82/62 59/85/62
f 53/81/75 65/90/75 63/79/75
f 53/81/76 54/71/76 65/90/76
f 64/87/77 61/72/77 58/88/77
f 60/69/78 58/89/78 61/70/78
f 64/87/79 67/91/79 61/72/79
f 58/89/80 60/69/80 59/85/80
f 54/68/62 59/85/62 60/69/62
f 54/71/81 66/78/81 65/90/81
f 61/72/82 67/91/82 62/73/82
f 68/92/83 57/76/83 69/80/83
f 55/74/84 57/76/84 68/92/84
f 70/93/85 80/94/85 72/95/85
f 77/96/86 71/97/86 78/98/86
f 72/99/87 75/100/88 71/101/89
f 71/97/90 77/96/90 76/102/90
f 71/101/89 73/103/38 72/99/87
f 70/104/38 72/99/87 73/103/38
f 75/105/91 74/106/91 81/107/91
f 75/105/92 72/95/92 74/106/92
f 73/108/93 79/109/94 70/93/95
f 79/109/96 80/94/96 70/93/96
f 80/110/97 74/111/97 72/112/97
f 75/105/98 81/107/98 71/97/98
f 71/97/99 81/107/99 78/98/99
f 71/101/89 76/113/38 73/103/38
f 77/96/100 73/108/100 76/102/100
f 98/114/101 82/115/101 87/116/101
f 82/115/102 98/114/102 91/117/102
f 83/118/103 82/115/103 91/117/103
f 82/119/104 83/120/104 87/121/104
f 83/120/105 85/122/106 87/121/107
f 89/123/108 87/121/109 85/122/110
f 89/123/111 88/124/111 87/121/111
f 89/125/112 92/126/112 88/127/112
f 96/128/113 88/127/113 92/126/113
f 83/118/114 94/129/114 84/130/114
f 89/125/115 93/131/115 92/126/115
f 94/129/116 83/118/116 91/117/116
f 83/120/105 84/132/117 85/122/106
f 89/123/108 85/122/110 84/132/118
f 84/130/119 90/133/119 86/134/119
f 93/131/120 89/125/120 86/134/120
f 89/125/121 84/130/121 86/134/121
f 94/135/122 90/136/122 84/137/122
f 95/138/123 88/127/123 96/128/123
f 97/139/124 88/127/124 95/138/124
f 98/114/125 87/116/125 88/127/125
f 98/140/126 88/127/126 97/139/126
f 99/141/127 106/142/127 102/143/127
f 106/142/128 108/144/128 102/143/128
f 100/145/129 104/146/129 103/147/129
f 103/147/130 104/146/130 106/142/130
f 105/148/131 101/149/131 102/143/131
f 107/150/38 102/151/38 101/152/38
f 103/153/38 102/151/38 107/150/38
f 99/154/38 102/151/38 103/153/38
f 105/148/132 102/143/132 108/144/132
f 100/155/133 103/153/134 107/150/135
f 100/155/133 107/150/135 101/152/136
f 100/145/137 101/149/137 110/156/137 109/157/137
f 110/156/138 101/149/138 105/148/138
f 104/146/139 100/145/139 109/157/139
f 99/141/140 103/147/140 106/142/140
f 115/158/141 119/159/141 123/160/141
f 124/161/142 112/162/142 125/163/142
f 112/162/143 117/164/143 125/163/143
f 117/164/144 113/165/144 125/163/144
f 120/166/145 115/158/145 123/160/145
f 113/165/146 126/167/146 125/163/146
f 121/168/147 112/162/147 124/161/147
f 121/168/148 119/159/148 112/162/148
f 119/159/149 114/169/149 112/162/149
f 113/165/150 118/170/150 126/167/150
f 113/165/151 111/171/151 118/170/151
f 111/172/152 113/173/38 117/174/153
f 111/172/152 117/174/153 116/175/154
f 112/176/155 114/177/155 117/174/155
f 114/177/156 116/175/154 117/174/153
f 111/172/152 116/175/154 114/177/156
f 111/172/152 114/177/156 115/178/157
f 119/159/158 115/158/158 114/169/158
f 118/170/159 111/171/159 122/179/159
f 111/171/160 115/158/160 122/179/160
f 115/158/161 120/166/161 122/179/161
f 134/180/162 127/181/162 135/182/162
f 137/183/163 136/184/163 128/185/163
f 133/186/164 132/187/165 129/188/166
f 137/183/167 127/181/167 134/180/167
f 127/181/168 137/183/168 130/189/168
f 128/185/169 130/189/169 137/183/169
f 131/190/38 127/191/38 130/192/38
f 131/190/38 130/192/38 132/193/38
f 128/185/170 132/187/170 130/189/170
f 131/190/38 132/193/38 133/194/38
f 131/195/171 133/186/171 138/196/171
f 133/186/172 129/197/172 138/196/172
f 135/182/173 131/195/173 139/198/173
f 127/181/174 131/195/174 135/182/174
f 139/198/175 131/195/175 138/196/175
f 132/187/165 128/185/176 129/188/166
f 128/185/177 136/184/177 129/188/177
f 141/199/178 147/200/178 154/201/178
f 140/202/179 148/203/179 145/204/179
f 148/203/180 147/200/180 145/204/180
f 141/199/181 145/204/181 147/200/181
f 141/199/182 151/205/182 150/206/182
f 141/199/183 150/206/183 142/207/183
f 149/208/184 142/207/184 150/206/184
f 144/209/185 143/210/186 145/211/187
f 143/210/188 140/212/188 145/211/188
f 142/213/189 144/209/189 145/211/189
f 141/214/189 142/213/189 145/211/189
f 140/202/190 143/215/190 152/216/190
f 148/203/191 140/202/191 152/216/191
f 143/215/192 153/217/192 152/216/192
f 142/213/189 146/218/189 144/209/189
f 143/210/186 144/209/185 146/218/193
f 146/219/194 142/207/194 155/220/194
f 142/207/184 149/208/184 155/220/184
f 146/219/195 155/220/195 156/221/195
f 141/199/196 154/201/196 151/205/196
f 153/217/197 143/215/197 146/219/197
f 146/219/198 156/221/198 153/217/198
f 77/96/199 79/109/94 73/108/93
